<svg width="158" height="35" viewBox="0 0 158 35" fill="none" xmlns="http://www.w3.org/2000/svg">
<g clip-path="url(#clip0_9_8)">
<path fill-rule="evenodd" clip-rule="evenodd" d="M6.90293 1L2.43428 5.65714V1H0V11H2.43428V8.48593L3.97535 6.9L7.08759 11H10L5.67026 5.15714L9.73806 1H6.90293Z" fill="white"/>
<path fill-rule="evenodd" clip-rule="evenodd" d="M20.6412 2.60826C20.1583 2.89706 19.7768 3.29064 19.4969 3.78968C19.2166 4.28893 19.0768 4.83697 19.0768 5.43377C19.0768 6.04052 19.2192 6.59306 19.504 7.0921C19.7888 7.59135 20.1703 7.98764 20.6484 8.28119C21.1264 8.57474 21.6454 8.72152 22.2056 8.72152C22.7656 8.72152 23.2798 8.57722 23.7482 8.28842C24.2164 7.99984 24.5883 7.60377 24.8638 7.09955C25.1388 6.59577 25.2765 6.04052 25.2765 5.43377C25.2765 4.83697 25.1388 4.28893 24.8638 3.78968C24.5883 3.29064 24.2164 2.89706 23.7482 2.60826C23.2798 2.3199 22.7656 2.17539 22.2056 2.17539C21.6454 2.17539 21.1239 2.3199 20.6412 2.60826ZM24.9433 0.839515C25.7737 1.29971 26.4279 1.9331 26.9062 2.74035C27.384 3.54761 27.6231 4.44542 27.6231 5.43377C27.6231 6.42213 27.384 7.32219 26.9062 8.13442C26.4279 8.94664 25.7737 9.585 24.9433 10.0497C24.1128 10.5146 23.1906 10.7468 22.1767 10.7468C21.1627 10.7468 20.2403 10.5146 19.41 10.0497C18.5794 9.585 17.9251 8.9489 17.4471 8.14164C16.9691 7.33439 16.7302 6.43184 16.7302 5.43377C16.7302 4.44542 16.9691 3.54761 17.4471 2.74035C17.9251 1.9331 18.577 1.29971 19.4026 0.839515C20.2283 0.379773 21.1529 0.149902 22.1767 0.149902C23.1906 0.149902 24.1128 0.379773 24.9433 0.839515Z" fill="white"/>
<path fill-rule="evenodd" clip-rule="evenodd" d="M35.9084 0.311157H38.1973V8.55987H42.5429V10.5854H35.9084V0.311157Z" fill="white"/>
<path fill-rule="evenodd" clip-rule="evenodd" d="M50.6831 0.311157H58.4039V2.2339H52.972V4.46487H57.8533V6.38761H52.972V8.66261H58.563V10.5854H50.6831V0.311157Z" fill="white"/>
<mask id="mask0_9_8" style="mask-type:alpha" maskUnits="userSpaceOnUse" x="66" y="0" width="9" height="11">
<path d="M66.3124 0.120361H74.7575V10.7174H66.3124V0.120361Z" fill="white"/>
</mask>
<g mask="url(#mask0_9_8)">
<path fill-rule="evenodd" clip-rule="evenodd" d="M72.1573 2.40281C71.573 2.21201 71.0734 2.11649 70.658 2.11649C70.262 2.11649 69.9484 2.18988 69.7167 2.33688C69.4849 2.48343 69.3688 2.69885 69.3688 2.98246C69.3688 3.34465 69.5355 3.62104 69.8687 3.81185C70.202 4.00265 70.7159 4.20068 71.4112 4.40617C72.1065 4.61165 72.6788 4.81714 73.1278 5.02285C73.5769 5.2281 73.9608 5.53633 74.2793 5.9473C74.5982 6.35826 74.7575 6.90133 74.7575 7.57649C74.7575 8.23223 74.5857 8.7972 74.2432 9.27184C73.9002 9.74649 73.4296 10.1062 72.8308 10.3505C72.232 10.5951 71.5512 10.7175 70.7884 10.7175C69.9676 10.7175 69.1613 10.5707 68.3696 10.2771C67.5776 9.98359 66.8921 9.58255 66.3124 9.07359L67.225 7.1802C67.7369 7.64988 68.3261 8.02675 68.9924 8.31036C69.6587 8.5942 70.2671 8.73601 70.8173 8.73601C71.2904 8.73601 71.6599 8.64794 71.9256 8.47181C72.191 8.29568 72.324 8.04143 72.324 7.70859C72.324 7.44439 72.2347 7.22672 72.0559 7.05555C71.8772 6.88439 71.6506 6.74485 71.3751 6.63714C71.0999 6.52965 70.7208 6.40749 70.2381 6.2702C69.5429 6.07465 68.9755 5.8791 68.536 5.6831C68.0963 5.48755 67.7177 5.18926 67.3988 4.78801C67.0804 4.38675 66.921 3.85362 66.921 3.18817C66.921 2.57149 67.0851 2.03114 67.4135 1.5662C67.7418 1.10149 68.2004 0.744265 68.7896 0.494748C69.3784 0.245232 70.0641 0.120361 70.8463 0.120361C71.5416 0.120361 72.2273 0.223103 72.9034 0.428587C73.5791 0.634071 74.1779 0.9082 74.6994 1.25052L73.8158 3.17326C73.2945 2.85036 72.7414 2.59362 72.1573 2.40281Z" fill="white"/>
</g>
<path fill-rule="evenodd" clip-rule="evenodd" d="M90.155 0.311157H92.3278V10.5854H90.2421L85.3314 3.98051V10.5854H83.1442V0.311157H85.23L90.155 6.94535V0.311157Z" fill="white"/>
<mask id="mask1_9_8" style="mask-type:alpha" maskUnits="userSpaceOnUse" x="0" y="0" width="158" height="35">
<path d="M0 35H157.815V0.120361H0V35Z" fill="white"/>
</mask>
<g mask="url(#mask1_9_8)">
<path fill-rule="evenodd" clip-rule="evenodd" d="M101.338 10.5854H103.626V0.311157H101.338V10.5854Z" fill="white"/>
<path fill-rule="evenodd" clip-rule="evenodd" d="M122.051 10.5854H119.313L116.387 6.37293L114.939 8.00213V10.5854H112.65V0.311157H114.939V5.096L119.14 0.311157H121.805L117.981 4.58229L122.051 10.5854Z" fill="white"/>
<path fill-rule="evenodd" clip-rule="evenodd" d="M133.292 2.60826C132.809 2.89706 132.427 3.29064 132.147 3.78968C131.867 4.28893 131.727 4.83697 131.727 5.43377C131.727 6.04052 131.87 6.59306 132.154 7.0921C132.439 7.59135 132.821 7.98764 133.299 8.28119C133.777 8.57474 134.296 8.72152 134.856 8.72152C135.416 8.72152 135.93 8.57722 136.399 8.28842C136.867 7.99984 137.239 7.60377 137.514 7.09955C137.789 6.59577 137.927 6.04052 137.927 5.43377C137.927 4.83697 137.789 4.28893 137.514 3.78968C137.239 3.29064 136.867 2.89706 136.399 2.60826C135.93 2.3199 135.416 2.17539 134.856 2.17539C134.296 2.17539 133.774 2.3199 133.292 2.60826ZM137.594 0.839515C138.424 1.29971 139.079 1.9331 139.557 2.74035C140.035 3.54761 140.273 4.44542 140.273 5.43377C140.273 6.42213 140.035 7.32219 139.557 8.13442C139.079 8.94664 138.424 9.585 137.594 10.0497C136.763 10.5146 135.841 10.7468 134.827 10.7468C133.813 10.7468 132.891 10.5146 132.061 10.0497C131.23 9.585 130.575 8.9489 130.098 8.14164C129.619 7.33439 129.381 6.43184 129.381 5.43377C129.381 4.44542 129.619 3.54761 130.098 2.74035C130.575 1.9331 131.228 1.29971 132.053 0.839515C132.879 0.379773 133.803 0.149902 134.827 0.149902C135.841 0.149902 136.763 0.379773 137.594 0.839515Z" fill="white"/>
<path fill-rule="evenodd" clip-rule="evenodd" d="M147.444 0.311157H149.906L152.673 8.06083L155.454 0.311157H157.815L153.788 10.5854H151.427L147.444 0.311157Z" fill="white"/>
<path fill-rule="evenodd" clip-rule="evenodd" d="M65.2351 20.9604L64.811 21.7837C64.9877 21.3721 65.1468 20.9785 65.2351 20.9604ZM64.7582 21.909L64.5814 22.3026C64.6345 22.1954 64.7051 22.052 64.7582 21.909ZM63.0095 25.6138C62.8504 25.9718 62.7269 26.3297 62.5856 26.6697C62.7269 26.3477 62.868 26.0255 62.9919 25.6854C62.9919 25.6676 62.9919 25.6498 63.0095 25.6138ZM65.9415 19.0813C64.5286 21.1036 63.6453 23.5019 62.6563 25.7389C62.0733 27.0455 61.5786 28.4059 61.1901 29.784C61.0134 30.4104 60.8721 31.0368 60.7484 31.6815L60.8367 31.3412C61.031 30.5001 61.3138 29.6587 61.614 28.8533C62.2498 27.0814 62.8504 25.2557 63.6453 23.5554C64.3519 22.0341 64.9877 20.4591 65.9415 19.0813ZM60.6778 33.5426C60.6956 33.5607 60.7132 33.5785 60.7308 33.5785L60.6778 33.5426ZM67.0014 22.5354C67.019 22.7858 66.7188 22.983 66.5069 23.0365C66.2771 23.1081 66.0121 22.9649 65.8004 23.0008C65.6765 23.0365 65.712 23.0902 65.6061 23.1259C65.447 23.1797 65.2527 23.1618 65.0938 23.1618C64.864 23.1618 64.3695 23.0365 64.1752 23.1618C64.1398 23.1797 64.1045 23.2153 64.0691 23.2693L64.1222 23.1618C64.0163 23.1797 63.8396 23.6631 63.7161 23.9851L63.9102 23.5913L63.6629 24.2714C63.4864 24.6472 63.3275 25.041 63.1686 25.4167C62.8504 26.1684 62.568 26.9023 62.2852 27.6721C61.8083 29.068 61.3314 30.5358 61.0134 31.9852C60.9604 32.2361 60.6602 33.2741 60.9958 33.4173C61.0486 33.4529 61.4197 33.2384 61.4021 33.2563C61.4903 33.1668 61.5964 33.0772 61.6846 32.9699C61.614 33.0235 61.4197 33.1847 61.4197 33.1488C61.4021 33.0413 61.8437 32.6834 61.9144 32.594C62.0909 32.4151 62.2498 32.218 62.4089 32.0392L63.4333 30.7683C64.0691 29.9629 64.6699 29.1398 65.3057 28.3344C65.447 28.1551 65.765 27.5289 65.9945 27.4754C66.2771 27.4212 66.3301 27.7078 66.2419 27.9406C66.0828 28.4238 65.6061 28.8176 65.3587 29.2468C64.9171 29.9986 64.3871 30.6968 63.8748 31.4128C63.3096 32.1823 62.7445 32.9519 62.1263 33.6858C61.8437 34.0437 61.4727 34.5447 61.031 34.7597C60.6956 34.9207 60.2539 34.724 59.9714 34.509C59.6534 34.2943 59.4766 33.9723 59.406 33.6142C59.3884 33.5067 59.2825 32.934 59.3884 32.8089V33.0772L59.4238 32.7191C59.3884 32.7911 59.3884 32.5581 59.3884 32.5224C59.3884 32.379 59.4238 32.218 59.459 32.0751C59.4945 31.7885 59.5651 31.52 59.6358 31.2335C59.7594 30.6789 59.9007 30.1241 60.0066 29.5512C60.095 28.9788 60.2891 28.4416 60.4659 27.9049C60.5013 27.8152 60.8545 26.7235 60.9428 26.7235C60.9604 26.7235 60.9076 26.9382 60.9076 26.956C60.978 26.6878 61.0843 26.4193 61.1725 26.1506C61.1371 26.2402 61.0843 26.3297 61.0843 26.294C61.0843 26.0792 61.3138 25.7033 61.3845 25.5064L61.5964 24.88C61.7905 24.3071 61.985 23.7347 62.2322 23.1975C61.7377 23.2334 61.2608 23.1975 60.8015 23.2871C60.1303 23.4122 59.2825 23.3409 58.6113 23.2515C58.5228 23.2334 58.099 23.2153 58.2048 23.0187C58.2403 22.9649 58.6289 22.8755 58.6996 22.8577C59.0352 22.7321 59.3884 22.7321 59.7418 22.7143C60.4304 22.6427 61.1019 22.6786 61.7905 22.5892C61.9672 22.5711 62.2676 22.6248 62.4265 22.5533C62.5856 22.4998 62.5856 22.3742 62.6563 22.2132C62.7797 21.891 62.921 21.5688 63.0623 21.2646C63.2214 20.9245 63.3627 20.5666 63.5746 20.2625C63.7161 20.0653 63.8572 20.0118 63.9633 19.7968C64.1752 19.3138 64.4226 18.8304 64.7582 18.419C65.1114 17.9536 65.7296 17.8818 66.2771 17.9893C66.5421 18.043 66.9131 18.204 66.7894 18.5619C66.7364 18.7053 66.5599 18.7947 66.4538 18.902C66.4538 18.9198 66.6127 18.741 66.6127 18.8126C66.5951 18.9379 65.9415 19.8508 65.8887 19.833C65.8708 19.833 66.1358 19.3852 66.1536 19.3495C65.4822 20.3519 64.9171 21.4437 64.3871 22.5354C64.4402 22.5354 64.4932 22.4636 64.5638 22.3385C64.5108 22.4458 64.4756 22.5176 64.4756 22.5354C65.1644 22.4998 65.8708 22.4998 66.5775 22.4636C66.7188 22.4636 66.9838 22.2669 67.0014 22.5176V22.5354Z" fill="white"/>
<path fill-rule="evenodd" clip-rule="evenodd" d="M69.1388 28.531L68.7677 29.3365L69.1388 28.5489V28.531ZM67.2133 27.0098C67.2312 27.0454 67.3372 27.1351 67.3372 27.1351C67.4255 27.2067 67.5492 27.2423 67.6905 27.2602C67.5316 27.2423 67.3725 27.2245 67.2842 27.1531C67.249 27.1351 67.2133 27.0454 67.2133 27.0098ZM66.7012 32.934C66.7012 32.9162 66.6836 32.8983 66.6836 32.8983C66.6836 32.9162 66.7012 32.9162 66.7012 32.934ZM66.666 31.1799C66.7895 30.7146 66.9838 30.2672 67.1605 29.8375L67.4961 29.0501C67.5844 28.8889 67.9552 28.0119 68.0437 27.9584C67.92 27.994 67.6729 28.6387 67.6374 28.6922C67.4785 28.9966 67.3372 29.3006 67.2133 29.6228C67.0016 30.1241 66.7895 30.6432 66.666 31.1799ZM66.6306 31.1799C66.6306 31.2156 66.613 31.2335 66.613 31.2515C66.613 31.2335 66.6306 31.2156 66.6306 31.1799ZM66.5776 31.5198V31.5381C66.5776 31.5198 66.5952 31.5019 66.5952 31.4841C66.5952 31.5019 66.5776 31.502 66.5776 31.5198ZM66.7895 33.0772C66.7719 33.0591 66.7543 33.0413 66.7543 33.0234L66.7719 33.0413C66.6836 32.8446 66.5952 32.6477 66.5599 32.5402L66.613 32.7728L66.5423 32.397V32.379C66.5247 32.3433 66.5247 32.3255 66.5247 32.3255C66.5247 32.3255 66.5247 32.3433 66.5423 32.3611V32.2717C66.5247 32.0213 66.5423 31.7885 66.5776 31.5559V31.5381C66.5423 31.6991 66.5247 31.8422 66.5247 32.0213C66.5069 32.2358 66.5247 32.4867 66.5776 32.7012C66.5952 32.7547 66.7367 33.0591 66.8425 33.2027C66.8425 33.1844 66.8425 33.1666 66.8249 33.1666C66.931 33.2741 67.0723 33.3635 67.2312 33.4172C67.0368 33.3454 66.8956 33.2027 66.7895 33.0591V33.0772ZM72.2653 28.2449C72.124 28.5489 71.9475 28.8354 71.753 29.1217C71.3467 29.7305 70.9053 30.3388 70.4812 30.9474C70.0573 31.5381 69.5983 32.1286 69.0329 32.6118C68.9268 32.6834 68.1143 33.3454 68.0615 33.3276C68.0615 33.3098 68.0791 33.2919 68.0967 33.2741L67.973 33.3276C68.0615 33.3098 67.7257 33.5423 67.6374 33.5785C67.3901 33.632 67.1251 33.5606 66.9134 33.4172C66.6836 33.2741 66.56 33.0591 66.4539 32.8087C66.2774 32.4149 66.2598 32.0391 66.3304 31.6094C66.348 31.5198 66.5952 30.482 66.7191 30.5C66.7543 30.5 66.6836 30.6432 66.7012 30.661L66.8249 30.2135C66.7719 30.1957 67.7081 28.1907 67.7965 28.0659C67.2666 28.1729 66.5952 28.155 66.2243 27.6899C66.1185 27.5467 66.1537 27.4212 66.1185 27.3139C66.0652 27.171 65.9948 27.0992 65.9594 26.9741C65.7829 26.097 66.7895 24.8799 67.6374 25.4704L67.602 25.4167C67.6198 25.3094 67.8317 25.5779 67.8494 25.6673C67.8494 25.7389 67.7081 26.2402 67.6198 26.2041C67.602 26.2041 67.7257 25.8821 67.7257 25.8642C67.602 26.2041 67.2312 26.58 67.1957 26.938C67.1605 27.2067 67.3018 27.2067 67.5316 27.2602C67.867 27.3498 68.3969 27.2961 68.8208 27.4212C68.5384 27.332 68.2028 27.3139 67.973 27.2782C67.973 27.2782 67.9552 27.2782 67.9552 27.2602C68.2204 27.2961 68.503 27.2961 68.7325 27.3498C69.2451 27.4751 69.5626 27.6718 69.3509 28.2269C69.1388 28.7458 68.874 29.2649 68.6443 29.784C68.4323 30.2851 68.2556 30.822 68.0615 31.341C68.0085 31.5198 67.6198 32.2717 67.7611 32.4508C67.9376 32.6655 68.9092 31.7707 69.174 31.4841C69.1212 31.5381 69.0681 31.5381 69.0329 31.5738C68.9975 31.5738 69.3861 31.0725 69.4392 31.0011L69.9513 30.3388L70.9053 29.068L71.8769 27.7436C71.9652 27.6361 72.3888 27.0098 72.4949 27.4751C72.5477 27.7256 72.3712 28.0299 72.2653 28.2449Z" fill="white"/>
<path fill-rule="evenodd" clip-rule="evenodd" d="M75.692 28.0837L75.6038 28.2092C75.5862 28.2627 75.5329 28.5131 75.5329 28.5131L75.692 28.0837ZM75.2682 27.2245V27.4033C75.321 27.3498 75.321 27.2963 75.2682 27.2245ZM75.2151 27.3498C75.2151 27.2066 74.8619 26.2223 74.9502 26.1505C74.9678 26.1327 75.1267 26.6516 75.1443 26.6877C75.0914 26.4727 75.0208 25.8107 74.7028 25.8107C74.1201 25.8107 73.6786 26.9025 73.484 27.3141C73.1308 28.1193 72.8128 28.9787 72.6715 29.8558C72.7246 29.5871 73.7492 26.3479 74.067 26.3657C73.8196 26.4192 72.8835 29.1754 72.8304 29.4261C72.7952 29.5692 72.5124 30.5 72.7776 30.5894C72.9543 30.6432 73.3782 30.0881 73.4664 29.9628C73.802 29.5512 74.12 29.1219 74.4204 28.6744L74.8795 28.0121C74.9502 27.887 75.0384 27.7614 75.1267 27.6363C75.2151 27.4932 75.2151 27.4932 75.2151 27.3498ZM79.7015 28.6744C79.472 29.2111 79.207 29.6943 78.9245 30.1778C78.5891 30.7145 78.2532 31.2334 77.8648 31.6993C77.5468 32.1107 77.1053 32.6298 76.5752 32.719C75.9748 32.8267 75.4977 32.3254 75.3034 31.7885C74.8795 30.7324 75.1799 29.6227 75.4977 28.6028C75.4977 28.6028 75.4977 28.4416 75.5153 28.3162C75.3388 28.5849 75.0914 28.9069 74.9326 29.1576C74.7204 29.4977 74.5615 29.8377 74.3318 30.1599C74.2259 30.3209 72.7776 32.0928 72.5833 31.7885C72.5833 31.7885 72.7952 31.6993 72.7776 31.6634C72.5657 31.8063 72.2831 31.8424 72.0357 31.7706C72.0886 31.8063 72.124 31.8241 72.1064 31.8241C71.6999 31.8781 71.3821 31.2334 71.2939 30.9476C71.1526 30.446 71.1878 29.8915 71.2763 29.3904C71.4706 28.3521 71.8945 27.2245 72.4948 26.3296C72.6539 26.1148 72.8128 25.8642 73.0426 25.7032C73.1839 25.5779 73.3075 25.56 73.4664 25.4528C73.7314 25.22 73.9609 25.0231 74.3496 25.0231C75.2151 25.0231 75.5686 26.0254 75.7451 26.7056C76.1689 26.1505 76.9284 25.4167 77.582 26.2223C77.9352 26.6516 77.7057 26.974 77.5114 27.3676C77.1758 27.9942 76.9108 28.7638 76.7695 29.4082C76.7873 29.3545 76.8401 29.0858 76.9108 29.0679C77.0523 29.0323 75.7803 33.0771 77.5998 30.8042C78.1472 30.1062 78.6243 29.3723 79.1012 28.6387C79.3131 28.2984 79.525 27.9405 79.7546 27.6004C79.8604 27.4575 80.1784 27.1174 80.1963 27.511C80.2315 27.9227 79.8428 28.3343 79.7015 28.6744Z" fill="white"/>
<path fill-rule="evenodd" clip-rule="evenodd" d="M80.9912 29.1933V29.4618C81.0088 29.3723 81.0088 29.2827 80.9912 29.1933ZM80.9382 28.1729V28.1909V28.2092C80.9382 28.2271 80.9382 28.2271 80.9558 28.2449C80.9558 28.2271 80.9382 28.2092 80.9382 28.1729ZM80.9382 27.7614V28.0302C80.9382 27.8692 80.9204 27.7614 80.9382 27.7614ZM80.7084 29.8377C80.6908 29.8915 80.7084 29.9093 80.7262 29.9093C80.7439 29.8558 80.7439 29.8377 80.7084 29.8377ZM80.7615 27.511C80.7439 27.4033 80.7262 27.2784 80.6732 27.1888C80.6556 27.171 80.4965 26.9382 80.4965 26.9919C80.4965 27.0635 80.6026 27.171 80.6204 27.2423C80.6732 27.3676 80.6908 27.511 80.7084 27.6542C80.7439 27.9583 80.7439 28.2271 80.7262 28.531C80.7084 28.8889 80.7615 29.2827 80.7439 29.6228C80.7969 29.2111 80.8145 28.7816 80.8321 28.3522C80.8497 28.0658 80.8145 27.7793 80.7615 27.511ZM87.3674 27.8692C87.1733 28.1372 86.9437 28.37 86.6966 28.585C86.5727 28.7101 86.4842 28.8711 86.361 28.9966C85.6013 29.8736 83.3757 30.482 83.4287 28.6922C82.8455 29.5155 82.1037 30.16 81.574 31.0368C81.2738 31.52 81.0795 31.9138 80.9734 32.4688C80.9558 32.6833 80.9204 32.8983 80.8145 33.0772C80.5495 33.4886 80.0726 33.4172 79.737 33.1668C79.2601 32.8089 79.2956 32.0393 79.3308 31.4662C79.3308 31.2515 79.4544 31.0368 79.4721 30.8577C79.4721 30.8577 79.4366 30.5357 79.4544 30.5716C79.4366 30.5179 79.4014 30.4639 79.4014 30.2851C79.4014 30.0882 79.4366 29.9272 79.4014 29.7305C79.3838 29.4977 79.3308 29.3545 79.3838 29.1039C79.3838 29.068 79.4721 28.8532 79.4721 28.8532C79.4721 28.8711 79.4721 28.9067 79.4901 28.9067C79.4901 28.8532 79.4901 28.7816 79.4721 28.7101L79.4544 28.7279C79.5077 28.6387 79.1897 27.6183 79.2425 27.4033C79.3132 27.1353 79.4901 27.0994 79.6664 26.9919C79.737 26.9382 79.8785 26.795 80.0374 26.7415C80.2317 26.6697 80.5141 26.6516 80.6556 26.8487C80.7615 26.9741 80.6732 27.0097 80.7262 27.1174C80.7084 27.0635 80.7969 27.0454 80.8145 27.0994C80.8321 27.1531 80.8497 27.4033 80.8321 27.3855L80.7793 27.2602C80.8673 27.5645 80.9027 27.887 80.9382 28.1909V28.2092L80.9734 28.746C80.9734 28.7101 80.9558 28.4772 80.9558 28.2627C81.0264 28.9966 81.1677 30.321 81.1501 30.5C81.3442 30.2137 81.5388 29.9272 81.7507 29.6587C81.8392 29.5155 81.9624 29.4082 82.0685 29.3008C82.1748 29.1754 82.1748 29.0501 82.2452 28.9426C82.4217 28.6206 82.7399 28.3881 82.9694 28.1193L83.5522 27.511C83.923 27.0813 84.2589 26.5624 84.7888 26.2402C85.1246 26.0076 85.9193 26.0254 85.8484 26.5981C85.8132 26.7415 85.7426 26.8131 85.6367 26.9022C85.3187 27.1888 84.9125 27.332 84.6121 27.6542L84.2941 27.994L84.1882 28.0658C84.153 28.1729 84.2234 28.155 84.2058 28.1909C84.1176 28.4416 83.7998 28.9966 84.1 29.1576C84.2412 29.229 84.5945 29.2111 84.7357 29.1754C84.9829 29.1398 85.2126 28.8889 85.46 28.7816C85.7071 28.6565 85.9017 28.4953 86.1134 28.3162C86.184 28.2627 87.4561 26.6516 87.5265 27.5467C87.5619 27.672 87.4385 27.7793 87.3674 27.8692Z" fill="white"/>
<path fill-rule="evenodd" clip-rule="evenodd" d="M88.3925 28.1729C88.9576 27.869 89.4702 27.4573 89.8762 26.9739L90.1764 26.5801C90.2296 26.4906 90.3179 26.4371 90.3531 26.3296C90.3709 26.24 90.3355 26.1684 90.3531 26.0612L90.4237 25.6852C90.4413 25.5061 90.3709 25.041 90.1057 25.0945C89.9823 25.1302 89.8586 25.2916 89.7879 25.381L89.4702 25.8105C89.0991 26.3655 88.9048 26.9739 88.6396 27.5467C88.6396 27.5467 88.6396 27.5646 88.622 27.6005C88.5337 27.7793 88.4807 27.9762 88.3925 28.1729ZM92.9321 27.7436L92.3844 28.4773L91.4308 29.7303C91.1832 30.0523 90.883 30.3567 90.6357 30.6789C90.3709 31.0368 90.1412 31.4128 89.841 31.7528C89.523 32.0927 89.1522 32.4508 88.7283 32.6834C88.4279 32.8444 88.1453 32.8625 87.8273 32.7728C87.368 32.6475 86.9618 32.3612 86.6614 32.0033C86.5731 31.8958 86.4849 31.8064 86.4673 31.6632C86.4497 31.5557 86.4318 31.4306 86.4318 31.3053C86.414 31.0905 86.4849 30.9295 86.5203 30.7146C86.5555 30.482 86.6614 30.267 86.6968 30.0344C86.732 29.784 86.8029 29.5512 86.8381 29.3184C86.8557 29.1039 86.8205 28.8711 86.8735 28.6566C86.909 28.5132 87.0146 28.37 87.0678 28.209C87.0146 28.3163 86.9266 28.4235 86.909 28.5132C86.8557 28.6566 86.8205 28.7995 86.7674 28.9246C86.7144 29.068 86.6968 29.1933 86.6438 29.3363C86.5731 29.4975 86.5027 29.6406 86.4849 29.8197C86.4673 29.9807 86.4849 30.1419 86.4673 30.3029C86.4318 30.4639 86.3964 30.5893 86.3964 30.7503C86.3964 30.804 86.4318 30.9115 86.4318 30.9474C86.4318 31.019 86.3964 31.1084 86.3964 31.1978C86.3964 31.3588 86.4318 31.5198 86.4497 31.6991C86.1671 31.1978 86.2199 30.6967 86.3082 30.16C86.3964 29.6228 86.4673 29.1039 86.5907 28.5848C86.8205 27.5287 87.2974 26.4906 87.9688 25.6495C88.5161 24.9156 89.2404 24.3606 90.194 24.5399C90.5474 24.6115 90.9358 24.7725 91.1656 25.0766C91.4132 25.4167 91.3954 25.8462 91.2717 26.24C91.0421 26.938 90.4589 27.493 89.9116 27.9584C89.6819 28.1551 89.4345 28.3522 89.1698 28.5132C88.9928 28.6204 88.7987 28.6923 88.6044 28.7636L88.3042 28.8711C88.1805 28.9068 88.1629 28.8889 88.1099 28.9964C88.0216 29.1753 88.0745 29.3543 88.0392 29.5332C88.004 29.7662 87.9512 29.9807 87.8977 30.2135C87.8097 30.643 87.6684 31.1978 87.7743 31.6454C87.9688 32.5581 89.4526 31.1441 89.7171 30.8936C89.8938 30.7324 90.0527 30.5536 90.212 30.3924C90.3003 30.2851 90.4061 30.1957 90.4768 30.088C90.4768 30.088 90.512 29.9985 90.512 29.9629C90.7241 29.6228 91.0067 29.3006 91.2717 28.9786C91.5897 28.6026 91.8722 28.209 92.1726 27.7972C92.3315 27.5646 92.7024 26.9023 92.9849 27.3855V27.4034C93.0025 27.4212 93.0025 27.4212 93.0025 27.4034C93.0734 27.5467 93.0204 27.6362 92.9321 27.7436Z" fill="white"/>
<path fill-rule="evenodd" clip-rule="evenodd" d="M95.4933 20.7276C95.4757 20.7454 95.4757 20.7813 95.4757 20.7991C95.8642 20.0831 96.3235 19.403 96.6945 18.6515C96.518 18.9735 96.1998 19.2598 96.0231 19.5999C95.829 19.9758 95.6522 20.3338 95.4933 20.7276ZM94.9104 25.7389C96.2176 23.6091 97.7011 21.372 98.4962 18.9735C98.1958 19.8329 97.7544 20.656 97.3479 21.4436C97.1005 21.8909 96.8712 22.3382 96.606 22.7858C96.4471 23.0543 96.1294 23.4659 96.0231 23.7525C96.1646 23.2871 96.5884 22.7501 96.8358 22.3204L97.5779 20.9245C98.0015 20.0653 98.6373 19.0092 98.6727 18.007V17.9892C98.7082 17.0406 97.913 18.1145 97.7896 18.3114C97.2951 19.1169 96.9416 19.9937 96.5884 20.8529C95.9348 22.4457 95.4227 24.1639 94.9104 25.7389ZM92.667 28.7997C92.5963 28.7997 92.5081 29.1754 92.4552 29.5871V29.5692C92.3316 30.1956 92.2607 30.8577 92.2255 31.5019L92.2783 30.9295V30.983C92.2783 30.8577 92.314 30.7502 92.3316 30.6253C92.4374 30.0881 92.4552 29.4082 92.667 28.9067C92.667 28.9067 92.667 28.8889 92.6848 28.8532C92.7026 28.8354 92.7026 28.7814 92.667 28.7997ZM99.1672 27.7793C99.0612 28.1728 98.8316 28.531 98.6195 28.8889C98.0898 29.7483 97.6307 30.661 97.0477 31.5198C96.4117 32.4508 95.7229 33.3994 94.9104 34.2046C94.2215 34.8669 93.2678 35.386 92.4374 34.6162C91.6956 33.9183 91.6956 32.6655 91.7486 31.7169C91.8192 30.7145 92.0842 29.7483 92.314 28.7814C92.3316 28.7457 92.314 28.3162 92.4022 28.1907C92.3846 28.2268 92.3846 28.3521 92.367 28.4594C92.4022 28.3343 92.4374 28.209 92.4905 28.0837H92.4374C92.3846 27.7255 92.6317 27.1709 92.7378 26.8309C92.8613 26.4192 93.0026 25.9895 93.1441 25.5779C93.4088 24.8083 93.6916 24.0566 93.9388 23.2871C94.1685 22.5175 94.5217 21.7837 94.8752 21.0676C95.0341 20.7276 95.2105 20.3875 95.4051 20.0474C95.4581 19.958 95.8466 19.1885 95.9348 19.2063L95.7937 19.5105L96.3587 18.5259L96.3411 18.544C96.4293 18.4008 96.5532 18.1324 96.6412 18.0251L97.0477 17.4701C97.2951 17.1661 97.5955 16.7362 98.0015 16.6111C98.7788 16.3607 99.4146 17.184 99.5207 17.8817L99.5383 17.8998V17.9892C99.6441 19.081 99.0081 20.3697 98.5314 21.3002C98.2487 21.8731 97.9487 22.571 97.5068 23.0364C97.2066 23.3765 97.0477 23.7344 96.8001 24.146C96.1294 25.2378 95.4051 26.3296 94.6102 27.3319C94.4159 27.5826 94.2922 27.7436 94.2039 28.0658C94.0976 28.4057 94.0096 28.7457 93.9211 29.1038C93.8155 29.4618 93.7268 29.8197 93.6386 30.1778C93.6034 30.3388 93.4445 30.8398 93.4621 30.8757C93.4088 31.0905 93.3736 31.3231 93.3558 31.538L93.4975 31.0011C93.5855 31.144 93.4445 31.6812 93.4269 31.8422C93.3912 32.1107 93.3736 32.397 93.3736 32.6833C93.3736 33.0234 93.3736 33.7929 93.8155 33.8645C94.4159 33.9363 95.0519 33.0234 95.3521 32.6477C96.0763 31.7706 96.6769 30.7861 97.2775 29.8197C97.5955 29.3184 97.8954 28.8175 98.1958 28.2984C98.3902 27.9762 98.5491 27.5288 98.7964 27.2601C99.2027 26.8309 99.2381 27.4929 99.1672 27.7793Z" fill="white"/>
<path fill-rule="evenodd" clip-rule="evenodd" d="M116.262 28.4423C116.263 28.4386 116.263 28.4346 116.262 28.4287C116.261 28.4344 116.261 28.4386 116.262 28.4423Z" fill="white"/>
<path fill-rule="evenodd" clip-rule="evenodd" d="M115.404 28.4552L115.413 28.448C115.407 28.4496 115.405 28.4521 115.404 28.4552Z" fill="white"/>
<path fill-rule="evenodd" clip-rule="evenodd" d="M116.775 28.4122L116.774 28.4156C116.782 28.4152 116.792 28.4143 116.81 28.4131L116.775 28.4122Z" fill="white"/>
<path fill-rule="evenodd" clip-rule="evenodd" d="M113.585 28.5265L113.596 28.5251C113.591 28.5253 113.588 28.5242 113.585 28.5265Z" fill="white"/>
<path fill-rule="evenodd" clip-rule="evenodd" d="M114.664 28.4984C114.661 28.5043 114.655 28.507 114.65 28.5093C114.657 28.5095 114.662 28.5079 114.664 28.4984Z" fill="white"/>
<path fill-rule="evenodd" clip-rule="evenodd" d="M117.082 28.6623L117.065 28.6449C117.066 28.653 117.072 28.6612 117.082 28.6623Z" fill="white"/>
<path fill-rule="evenodd" clip-rule="evenodd" d="M117.587 28.5094L117.585 28.5051C117.585 28.5069 117.586 28.5083 117.587 28.5094Z" fill="white"/>
<path fill-rule="evenodd" clip-rule="evenodd" d="M117.375 28.4614C117.371 28.4639 117.366 28.4677 117.361 28.472C117.368 28.4705 117.375 28.4693 117.375 28.4614Z" fill="white"/>
<path fill-rule="evenodd" clip-rule="evenodd" d="M117.355 28.4777L117.361 28.472C117.358 28.4729 117.355 28.4743 117.355 28.4777Z" fill="white"/>
<path fill-rule="evenodd" clip-rule="evenodd" d="M106.986 28.7251C106.972 28.7237 106.958 28.7379 106.944 28.7495L106.986 28.7251Z" fill="white"/>
<path fill-rule="evenodd" clip-rule="evenodd" d="M111.942 28.614L111.945 28.6058C111.942 28.6085 111.942 28.6113 111.942 28.614Z" fill="white"/>
<path fill-rule="evenodd" clip-rule="evenodd" d="M106.961 28.8933L106.95 28.8888C106.954 28.8922 106.957 28.8933 106.961 28.8933Z" fill="white"/>
<path fill-rule="evenodd" clip-rule="evenodd" d="M116.814 28.75C116.802 28.7708 116.768 28.7525 116.771 28.7708C116.786 28.7656 116.81 28.7769 116.814 28.75Z" fill="white"/>
<path fill-rule="evenodd" clip-rule="evenodd" d="M111.623 29.348L111.612 29.3494C111.617 29.3494 111.62 29.3489 111.623 29.348Z" fill="white"/>
<path fill-rule="evenodd" clip-rule="evenodd" d="M106.961 28.8934L106.973 28.8984C106.971 28.8948 106.97 28.8918 106.969 28.8887C106.967 28.8914 106.964 28.893 106.961 28.8934Z" fill="white"/>
<path fill-rule="evenodd" clip-rule="evenodd" d="M110.23 28.658H110.231L110.235 28.6544L110.23 28.658Z" fill="white"/>
<path fill-rule="evenodd" clip-rule="evenodd" d="M110.139 28.6279C110.145 28.6259 110.152 28.6238 110.159 28.6216C110.148 28.6198 110.143 28.6232 110.139 28.6279Z" fill="white"/>
<path fill-rule="evenodd" clip-rule="evenodd" d="M106.944 28.7496L106.92 28.7636C106.929 28.7618 106.937 28.756 106.944 28.7496Z" fill="white"/>
<path fill-rule="evenodd" clip-rule="evenodd" d="M109.161 28.6596C109.164 28.6589 109.167 28.6583 109.17 28.6571C109.166 28.6569 109.163 28.6578 109.161 28.6596Z" fill="white"/>
<path fill-rule="evenodd" clip-rule="evenodd" d="M114.733 28.503C114.736 28.5046 114.739 28.5053 114.742 28.5066C114.742 28.5019 114.741 28.4987 114.733 28.503Z" fill="white"/>
<path fill-rule="evenodd" clip-rule="evenodd" d="M114.1 29.0693H114.1V29.0698L114.1 29.0693Z" fill="white"/>
<path fill-rule="evenodd" clip-rule="evenodd" d="M114.134 29.0427C114.123 29.0393 114.107 29.0545 114.1 29.0694C114.111 29.0685 114.122 29.0635 114.134 29.0427Z" fill="white"/>
<path fill-rule="evenodd" clip-rule="evenodd" d="M114.021 29.066L114.026 29.0681C114.024 29.0669 114.023 29.0663 114.021 29.066Z" fill="white"/>
<path fill-rule="evenodd" clip-rule="evenodd" d="M114.756 29.0384L114.756 29.0364L114.756 29.0382L114.756 29.0384Z" fill="white"/>
<path fill-rule="evenodd" clip-rule="evenodd" d="M114.611 29.0554C114.609 29.0518 114.605 29.0495 114.601 29.0477C114.604 29.0511 114.607 29.0541 114.611 29.0554Z" fill="white"/>
<path fill-rule="evenodd" clip-rule="evenodd" d="M113.664 29.1491V29.1482L113.663 29.1484L113.664 29.1491Z" fill="white"/>
<path fill-rule="evenodd" clip-rule="evenodd" d="M112.302 29.3769C112.439 29.3589 112.615 29.309 112.753 29.3126C112.78 29.2715 112.823 29.2677 112.866 29.2564L112.874 29.3081L112.909 29.2893C112.925 29.3042 112.882 29.3006 112.909 29.3189L112.921 29.2857C112.925 29.3042 113.015 29.2925 112.956 29.3336L113.097 29.3248C113.129 29.3241 113.113 29.2801 113.148 29.2905C113.156 29.3054 113.136 29.3017 113.141 29.3203C113.247 29.3517 113.253 29.211 113.351 29.2279L113.344 29.2354C113.359 29.2205 113.39 29.22 113.39 29.2123C113.374 29.1608 113.375 29.2419 113.343 29.2132C113.343 29.169 113.378 29.1868 113.374 29.1534C113.398 29.1678 113.409 29.1419 113.429 29.1376C113.464 29.1631 113.511 29.1398 113.539 29.1728C113.554 29.1577 113.569 29.1132 113.604 29.1089C113.632 29.1417 113.601 29.1423 113.636 29.1527L113.64 29.1267C113.668 29.1286 113.664 29.1362 113.664 29.1482C113.695 29.1471 113.687 29.1116 113.726 29.1249L113.707 29.1516C113.734 29.1394 113.746 29.143 113.784 29.1419C113.785 29.1566 113.769 29.1568 113.757 29.1536C113.781 29.1897 113.792 29.1342 113.804 29.1374C113.8 29.1267 113.773 29.1238 113.784 29.0974C113.803 29.1003 113.822 29.0595 113.838 29.0884L113.819 29.1148C113.858 29.0915 113.838 29.0809 113.885 29.0872C113.883 29.0893 113.885 29.0956 113.884 29.101C113.911 29.0658 113.951 29.0924 113.995 29.0911L113.987 29.099C114.004 29.0888 114.011 29.0649 114.021 29.066C113.995 29.0531 114.001 29.0452 113.997 29.0208C114.033 29.0606 114.043 28.9678 114.098 28.9883C114.098 29.0032 114.087 29.022 114.071 29.0075C114.056 29.0525 114.057 29.0895 114.026 29.1123C114.046 29.1006 114.069 29.0927 114.065 29.1112L114.068 29.0705C114.08 29.0685 114.09 29.0703 114.1 29.0694C114.103 29.0432 114.071 29.0297 114.099 29.0107C114.129 28.9949 114.119 29.0507 114.122 29.0321C114.165 29.0123 114.137 28.9872 114.18 28.9969C114.176 29.0007 114.169 29.0084 114.164 29.005C114.196 29.0186 114.238 28.9915 114.251 29.0394C114.248 29.0507 114.248 29.0651 114.236 29.0619L114.236 29.0545C114.206 29.0924 114.263 29.0427 114.256 29.0872C114.252 29.0615 114.295 29.0637 114.314 29.0671L114.306 29.0378C114.362 28.9436 114.308 29.0969 114.37 29.0802C114.408 29.0567 114.354 29.073 114.377 29.0504C114.404 29.0529 114.417 29.0784 114.455 29.0617C114.467 29.0726 114.491 29.0863 114.496 29.1193C114.519 29.1037 114.571 29.1274 114.581 29.0936C114.538 29.0698 114.543 29.1324 114.491 29.0936L114.502 29.0601C114.535 29.0586 114.577 29.0382 114.601 29.0477C114.595 29.0421 114.593 29.0337 114.595 29.0265C114.641 29.0098 114.652 28.9761 114.699 28.9816C114.708 29.0107 114.68 29.0082 114.661 29.0127C114.693 29.0335 114.692 29.0116 114.739 29.0168C114.744 29.0427 114.708 29.0181 114.705 29.0441L114.755 29.0312L114.756 29.0364C114.759 28.9922 114.795 29.0364 114.825 29.0206C114.899 29.0141 114.905 28.9545 114.943 28.9158C114.955 28.9267 114.959 28.9375 114.956 28.9488C114.936 28.931 114.94 28.9459 114.935 28.9581C114.96 28.9511 114.994 28.9953 114.981 29.0143C115.02 28.9978 114.965 28.9926 114.988 28.9768L115.043 28.9746C115.034 28.9529 115.014 28.9497 115.041 28.9301C115.064 28.9219 115.076 28.9249 115.107 28.9231C115.104 28.9346 115.12 28.956 115.097 28.9572C115.112 28.9637 115.136 28.9624 115.143 28.9398C115.107 28.9231 115.197 28.9147 115.168 28.8829L115.204 28.8996C115.196 28.9 115.197 28.9147 115.185 28.9116C115.198 28.9443 115.211 28.8991 115.223 28.8946C115.236 28.9 115.267 28.8996 115.271 28.9122C115.281 28.9018 115.307 28.9066 115.314 28.9231C115.329 28.9147 115.313 28.9012 115.317 28.8897L115.371 28.8867C115.376 28.905 115.386 28.9563 115.379 28.9642C115.397 28.9447 115.38 28.9084 115.411 28.9068C115.397 28.9447 115.455 28.9303 115.434 28.9761C115.454 29.0007 115.505 28.9942 115.532 28.9818C115.546 28.9513 115.5 28.9687 115.499 28.9393C115.576 28.9204 115.572 28.8388 115.631 28.8467L115.615 28.8402C115.649 28.8199 115.646 28.8239 115.664 28.7971C115.658 28.8341 115.715 28.8908 115.773 28.8759C115.776 28.8569 115.736 28.8449 115.743 28.8149L115.781 28.805C115.784 28.8075 115.781 28.814 115.776 28.8192C115.81 28.802 115.847 28.8587 115.852 28.8151L115.894 28.8641L115.877 28.8429C115.88 28.8244 115.918 28.8145 115.926 28.8063C115.964 28.7815 115.98 28.7955 116.005 28.816C115.996 28.8018 115.974 28.77 116.005 28.7605C116.012 28.8194 116.074 28.7745 116.077 28.8052C116.089 28.8027 116.114 28.8183 116.113 28.7939L116.115 28.8307C116.112 28.7792 116.159 28.7761 116.193 28.7627C116.193 28.8332 116.231 28.7526 116.255 28.8142C116.256 28.7661 116.316 28.788 116.317 28.7472C116.344 28.7417 116.347 28.7858 116.356 28.8L116.366 28.7808C116.383 28.8014 116.434 28.7984 116.467 28.8095L116.49 28.7643L116.503 28.7817C116.506 28.7704 116.529 28.7612 116.512 28.7478L116.528 28.7483C116.524 28.7025 116.548 28.7327 116.577 28.7095C116.585 28.7158 116.584 28.7268 116.578 28.7338C116.594 28.7325 116.59 28.7564 116.6 28.7704C116.588 28.7605 116.645 28.6819 116.601 28.6666C116.596 28.6485 116.618 28.6318 116.634 28.6381L116.649 28.6776L116.661 28.6322C116.684 28.623 116.697 28.6478 116.717 28.6501C116.698 28.6553 116.684 28.7343 116.734 28.7266C116.708 28.7354 116.698 28.76 116.686 28.7702C116.696 28.7704 116.702 28.7738 116.688 28.7932C116.726 28.7754 116.698 28.7666 116.736 28.7562C116.739 28.793 116.751 28.8032 116.787 28.8113L116.758 28.788C116.758 28.7831 116.76 28.7797 116.762 28.7774C116.751 28.7747 116.748 28.7693 116.744 28.7555C116.752 28.7548 116.783 28.7043 116.793 28.7255C116.746 28.6738 116.856 28.6727 116.826 28.6415C116.829 28.6302 116.856 28.6246 116.861 28.6424C116.832 28.6745 116.891 28.681 116.889 28.707C116.9 28.6948 116.86 28.6835 116.875 28.6672C116.894 28.6623 116.911 28.683 116.923 28.6932L116.916 28.7011L116.949 28.7135C116.951 28.6948 116.915 28.6862 116.942 28.6733C116.95 28.6799 116.976 28.6668 116.977 28.6815C116.967 28.7083 116.982 28.7404 116.959 28.7499C116.978 28.7445 117.04 28.7323 117.01 28.7013L117.034 28.6993C117.017 28.6857 116.972 28.6636 117.018 28.6523L117.019 28.6598L117.048 28.6279L117.064 28.6449C117.063 28.6356 117.067 28.6266 117.079 28.6255C117.084 28.6361 117.096 28.6386 117.097 28.6535C117.131 28.6467 117.126 28.6286 117.129 28.6173C117.148 28.6117 117.157 28.6185 117.15 28.6413C117.178 28.6422 117.224 28.6307 117.245 28.6476C117.278 28.6259 117.236 28.6408 117.254 28.613C117.294 28.6727 117.376 28.6205 117.433 28.6042C117.409 28.5509 117.448 28.5957 117.452 28.5435C117.441 28.5629 117.513 28.5785 117.464 28.6015L117.495 28.5914C117.521 28.6189 117.446 28.6216 117.485 28.6589C117.519 28.6521 117.534 28.5877 117.578 28.6024C117.57 28.6437 117.608 28.5848 117.604 28.6295C117.597 28.6451 117.585 28.6424 117.574 28.6474L117.582 28.6539C117.661 28.6544 117.598 28.604 117.634 28.5715C117.68 28.5595 117.675 28.597 117.681 28.6153C117.689 28.6218 117.712 28.6124 117.723 28.6004C117.698 28.6286 117.666 28.583 117.676 28.5564C117.703 28.5984 117.746 28.55 117.756 28.5304C117.682 28.4925 117.709 28.5349 117.639 28.4929C117.633 28.5083 117.64 28.5485 117.6 28.5372C117.621 28.5139 117.595 28.515 117.587 28.5094C117.598 28.5317 117.563 28.5229 117.552 28.5342C117.54 28.5166 117.567 28.4773 117.528 28.4733L117.529 28.529C117.513 28.5229 117.529 28.4879 117.499 28.5058C117.513 28.4746 117.488 28.4622 117.53 28.4473C117.472 28.408 117.455 28.4837 117.418 28.5092C117.421 28.5053 117.421 28.4979 117.424 28.4938C117.418 28.5092 117.402 28.5107 117.391 28.5157C117.363 28.5069 117.408 28.4877 117.399 28.4739L117.357 28.4814C117.356 28.4796 117.355 28.4787 117.355 28.4778C117.345 28.4868 117.335 28.4934 117.329 28.48C117.339 28.4608 117.342 28.4419 117.348 28.4265L117.309 28.4708C117.311 28.452 117.268 28.445 117.298 28.4274L117.233 28.4444L117.222 28.4085C117.208 28.4173 117.208 28.4245 117.227 28.4263C117.204 28.4211 117.136 28.5053 117.138 28.431C117.091 28.4685 117.07 28.4597 117.01 28.4864C117.054 28.4459 116.949 28.4502 116.998 28.4279C116.966 28.4157 116.965 28.4566 116.942 28.4658C116.918 28.4527 116.923 28.4155 116.945 28.3987L116.919 28.4193L116.919 28.4121L116.897 28.4358C116.869 28.4195 116.887 28.3997 116.859 28.3981L116.858 28.4315L116.837 28.4148C116.846 28.4288 116.831 28.4376 116.812 28.4426L116.811 28.4351L116.789 28.4446C116.809 28.4218 116.766 28.4405 116.774 28.4155C116.754 28.4166 116.753 28.417 116.717 28.4279L116.727 28.4493C116.682 28.4748 116.72 28.4164 116.682 28.4195L116.688 28.4448C116.627 28.4089 116.596 28.4816 116.552 28.4593C116.575 28.4502 116.565 28.4211 116.566 28.4286C116.531 28.4423 116.473 28.443 116.441 28.4789C116.423 28.4432 116.418 28.4326 116.379 28.4209C116.352 28.4265 116.348 28.4304 116.342 28.4532C116.314 28.4417 116.267 28.469 116.262 28.4421C116.259 28.4645 116.238 28.4407 116.225 28.4606L116.221 28.45L116.226 28.4755C116.173 28.4234 116.151 28.5171 116.098 28.4728L116.105 28.4649L116.087 28.4773C116.082 28.4665 116.089 28.4586 116.089 28.4437L115.996 28.45L116.016 28.4672C115.997 28.4721 115.987 28.4986 115.963 28.4855C115.995 28.4423 115.932 28.4877 115.922 28.4586L115.941 28.4459C115.914 28.4516 115.914 28.4516 115.919 28.4773C115.885 28.4904 115.89 28.431 115.86 28.4624L115.884 28.4608C115.892 28.4753 115.878 28.4983 115.862 28.4995C115.858 28.4961 115.846 28.4859 115.857 28.4812C115.831 28.4943 115.788 28.4859 115.777 28.4977C115.761 28.4913 115.764 28.4726 115.771 28.4647C115.714 28.4943 115.744 28.4629 115.687 28.4922L115.686 28.4776L115.668 28.4972L115.636 28.4692L115.648 28.4873C115.629 28.4918 115.618 28.5035 115.594 28.4972L115.601 28.4748C115.547 28.4925 115.534 28.445 115.485 28.4809C115.481 28.4776 115.488 28.4697 115.492 28.4658C115.447 28.5051 115.451 28.431 115.407 28.4778C115.409 28.4701 115.403 28.4615 115.404 28.4552L115.383 28.4717L115.382 28.4421L115.369 28.4875L115.352 28.4586L115.345 28.4735C115.315 28.42 115.286 28.4658 115.25 28.427L115.259 28.4636C115.185 28.5487 115.068 28.4407 114.973 28.4859L114.972 28.4563L114.935 28.4947C114.911 28.4735 114.945 28.4685 114.937 28.4538C114.895 28.4742 114.923 28.499 114.873 28.5121C114.846 28.4947 114.88 28.4895 114.891 28.4782C114.846 28.497 114.777 28.5198 114.742 28.5067C114.741 28.5105 114.74 28.5159 114.742 28.5173C114.711 28.5336 114.668 28.5243 114.634 28.5295C114.633 28.5159 114.642 28.5128 114.65 28.5092C114.637 28.5085 114.619 28.5008 114.61 28.5157L114.621 28.4891C114.593 28.4866 114.544 28.5146 114.535 28.4852C114.54 28.4963 114.54 28.5184 114.517 28.5193C114.5 28.4755 114.456 28.5442 114.417 28.5236C114.42 28.5123 114.447 28.5074 114.439 28.5076C114.42 28.4974 114.405 28.5202 114.39 28.5356L114.393 28.5171L114.309 28.5498C114.292 28.506 114.228 28.5631 114.231 28.5299C114.2 28.5308 114.258 28.5476 114.22 28.5559C114.208 28.5381 114.185 28.5679 114.184 28.5385L114.188 28.5349L114.161 28.5392L114.176 28.5092C114.153 28.5173 114.138 28.5473 114.139 28.5695C114.115 28.5552 114.085 28.571 114.072 28.5455L114.08 28.5378C114.018 28.5546 113.97 28.4672 113.925 28.5202C113.921 28.5164 113.921 28.5092 113.928 28.5089L113.89 28.5103L113.897 28.4877L113.836 28.5263L113.836 28.5117C113.793 28.5092 113.727 28.5223 113.674 28.5313L113.681 28.5236C113.624 28.5509 113.623 28.5137 113.581 28.5331C113.582 28.529 113.583 28.5272 113.585 28.5263L113.546 28.5297L113.553 28.515C113.527 28.5485 113.468 28.4794 113.487 28.5049C113.472 28.52 113.445 28.539 113.442 28.5573C113.399 28.562 113.43 28.5392 113.403 28.5284C113.372 28.529 113.368 28.5548 113.326 28.5444L113.325 28.5297C113.306 28.5338 113.295 28.5451 113.268 28.5494L113.275 28.5417C113.233 28.5756 113.217 28.5022 113.187 28.569C113.167 28.5584 113.132 28.5701 113.132 28.5403C113.078 28.5634 113.036 28.5753 112.982 28.5909C112.97 28.543 112.97 28.5945 112.935 28.569L112.939 28.5945C112.862 28.6027 112.769 28.5437 112.684 28.5591L112.68 28.5333L112.664 28.5629C112.572 28.5559 112.452 28.5527 112.379 28.5566C112.355 28.5715 112.32 28.6051 112.282 28.5975L112.286 28.5936C112.22 28.6115 112.15 28.6259 112.076 28.6142C112.08 28.6031 112.073 28.5957 112.081 28.5884C112.065 28.6178 112.038 28.5916 112.023 28.5916L112.042 28.6101C112.022 28.6361 111.991 28.6135 111.98 28.595L111.949 28.6243C111.946 28.6218 111.943 28.6182 111.942 28.6139L111.937 28.6279L111.918 28.5943C111.91 28.6017 111.868 28.6126 111.856 28.646C111.852 28.6347 111.821 28.6273 111.844 28.6198L111.725 28.6151L111.744 28.6266C111.747 28.6523 111.712 28.6704 111.693 28.6593C111.716 28.6374 111.694 28.6223 111.682 28.6038C111.667 28.6187 111.697 28.6261 111.689 28.6406C111.67 28.6591 111.627 28.6699 111.616 28.6584L111.627 28.6478C111.6 28.6582 111.585 28.6135 111.558 28.6167C111.535 28.6383 111.516 28.6196 111.523 28.6641C111.487 28.6745 111.508 28.6343 111.496 28.6302C111.48 28.6521 111.43 28.6399 111.423 28.6176C111.406 28.6837 111.327 28.5972 111.322 28.6526L111.292 28.6223C111.291 28.6372 111.286 28.6704 111.263 28.6772C111.24 28.662 111.245 28.6363 111.237 28.6212L111.224 28.6765C111.094 28.6223 110.926 28.6672 110.785 28.6209C110.723 28.634 110.644 28.6609 110.571 28.655L110.579 28.6478L110.506 28.6343L110.559 28.6582C110.543 28.6652 110.531 28.676 110.516 28.6756C110.436 28.6539 110.329 28.6293 110.231 28.658C110.168 28.7219 110.188 28.6024 110.128 28.6489C110.133 28.6431 110.134 28.6343 110.139 28.6279C110.074 28.6494 110.038 28.6607 109.973 28.6984C109.98 28.6358 109.93 28.7002 109.936 28.667L109.93 28.6927C109.916 28.6772 109.881 28.6722 109.886 28.6539L109.857 28.6857L109.855 28.6598C109.816 28.658 109.734 28.6803 109.713 28.6277C109.618 28.6684 109.468 28.6555 109.349 28.6453C109.332 28.6666 109.297 28.6681 109.27 28.6702L109.241 28.639C109.213 28.6485 109.183 28.6876 109.158 28.6675C109.158 28.6641 109.159 28.6614 109.16 28.6596C109.132 28.6659 109.106 28.6492 109.079 28.6778C109.048 28.676 109.018 28.6596 109.028 28.6307C109.025 28.6824 108.963 28.6232 108.963 28.6232C108.963 28.6232 108.567 28.5877 108.123 28.5814C107.679 28.5749 107.186 28.5932 106.986 28.725C106.972 28.7501 106.935 28.765 106.948 28.7959C106.92 28.8043 106.909 28.7589 106.902 28.784C106.94 28.8025 106.888 28.8495 106.923 28.8827L106.899 28.8878C106.894 28.9057 106.933 28.8687 106.925 28.9014L106.934 28.854C106.953 28.8619 106.963 28.8723 106.969 28.8887C106.988 28.8709 107.003 28.8068 107.044 28.8366L107.032 28.8391C107.068 28.8386 107.053 28.8707 107.06 28.8788L107.052 28.8779L107.081 28.903C107.059 28.8863 107.02 28.9233 107.04 28.9213C107.081 28.9364 107.029 28.9093 107.061 28.9048C107.081 28.903 107.074 28.9283 107.073 28.9429L107.108 28.9425C107.106 28.9646 107.085 28.9405 107.098 28.9639L107.143 28.9423C107.149 28.9985 107.192 28.9172 107.21 28.9707C107.178 28.9827 107.213 28.9897 107.207 29.0075H107.285C107.292 29.0154 107.264 29.024 107.276 29.0215C107.29 29.0376 107.301 29.0089 107.309 29.0096C107.315 29.0251 107.367 29.0114 107.364 29.0484C107.416 29.0753 107.387 29.0021 107.436 29.0251C107.442 29.0479 107.397 29.029 107.418 29.0531L107.469 29.0468C107.464 29.0577 107.458 29.0829 107.439 29.0773C107.577 29.113 107.648 29.2329 107.776 29.2065C107.793 29.2338 107.762 29.2241 107.749 29.2412C107.842 29.2083 107.877 29.3038 107.956 29.3027L107.958 29.2805C108.065 29.3519 108.198 29.3157 108.321 29.3458L108.306 29.3302C108.324 29.3092 108.351 29.3072 108.372 29.2977C108.375 29.3087 108.357 29.3447 108.392 29.3361C108.385 29.3282 108.37 29.3196 108.375 29.3087C108.48 29.3681 108.705 29.3573 108.879 29.3878C109.116 29.3727 109.372 29.416 109.604 29.4031C109.569 29.4049 109.584 29.3503 109.61 29.3629C109.684 29.4551 109.737 29.3462 109.812 29.409C109.947 29.3778 110.068 29.4569 110.193 29.3848L110.196 29.4108C110.215 29.4226 110.22 29.4045 110.239 29.4016L110.239 29.4092C110.286 29.4187 110.342 29.3909 110.369 29.4027L110.37 29.3731C110.398 29.3704 110.385 29.3957 110.413 29.3783L110.412 29.393L110.445 29.3645C110.443 29.4162 110.523 29.367 110.546 29.3898C110.581 29.3799 110.649 29.3559 110.703 29.3652C110.714 29.3914 110.781 29.39 110.824 29.4022C110.906 29.3941 111.024 29.3826 111.13 29.3882L111.127 29.3546L111.154 29.3517C111.154 29.3589 111.158 29.3627 111.154 29.3663C111.176 29.4036 111.217 29.3526 111.24 29.3754C111.225 29.3456 111.22 29.3713 111.205 29.3711C111.182 29.3557 111.202 29.323 111.233 29.3383L111.233 29.3456L111.253 29.3273C111.256 29.3535 111.275 29.365 111.278 29.3909C111.369 29.3817 111.429 29.3347 111.523 29.344C111.514 29.3731 111.589 29.3343 111.573 29.3853C111.628 29.3643 111.562 29.3447 111.586 29.3081C111.602 29.3083 111.618 29.2941 111.621 29.3126C111.614 29.325 111.635 29.3431 111.622 29.348L111.66 29.3428C111.664 29.3465 111.656 29.3537 111.652 29.3573C111.727 29.325 111.788 29.3842 111.855 29.3519C111.86 29.3334 111.828 29.3478 111.832 29.3293C111.899 29.2889 111.894 29.3593 111.957 29.3302L111.945 29.3559C111.965 29.3377 111.973 29.3155 112.008 29.3343C112.016 29.3638 111.981 29.36 111.965 29.3745C111.988 29.3747 112.047 29.3641 112.028 29.3381C112.055 29.327 112.067 29.3532 112.082 29.3607C112.083 29.3532 112.055 29.3419 112.071 29.3273C112.11 29.3424 112.169 29.339 112.216 29.3395C112.216 29.3467 112.219 29.3577 112.215 29.3618C112.251 29.3212 112.251 29.3878 112.302 29.3769Z" fill="white"/>
<path fill-rule="evenodd" clip-rule="evenodd" d="M114.775 29.0412L114.756 29.0385C114.757 29.0452 114.757 29.0527 114.749 29.0608L114.775 29.0412Z" fill="white"/>
<path fill-rule="evenodd" clip-rule="evenodd" d="M113.884 29.1011C113.882 29.1036 113.879 29.1058 113.878 29.1094C113.882 29.1078 113.883 29.1045 113.884 29.1011Z" fill="white"/>
<path fill-rule="evenodd" clip-rule="evenodd" d="M113.671 29.1706C113.686 29.1632 113.672 29.1564 113.664 29.1492C113.664 29.1553 113.665 29.1623 113.671 29.1706Z" fill="white"/>
<path fill-rule="evenodd" clip-rule="evenodd" d="M115.271 28.9124C115.268 28.9157 115.266 28.9196 115.267 28.9259C115.271 28.92 115.272 28.916 115.271 28.9124Z" fill="white"/>
<path fill-rule="evenodd" clip-rule="evenodd" d="M116.661 28.77C116.659 28.7688 116.657 28.7679 116.655 28.7661C116.656 28.7681 116.658 28.7695 116.661 28.77Z" fill="white"/>
<path fill-rule="evenodd" clip-rule="evenodd" d="M116.578 28.7339C116.574 28.7341 116.57 28.7359 116.563 28.74C116.57 28.7407 116.575 28.738 116.578 28.7339Z" fill="white"/>
<path fill-rule="evenodd" clip-rule="evenodd" d="M114.935 28.958C114.93 28.9594 114.925 28.9621 114.921 28.9686C114.929 28.9673 114.933 28.9627 114.935 28.958Z" fill="white"/>
<path fill-rule="evenodd" clip-rule="evenodd" d="M116.548 28.7487L116.528 28.7483C116.528 28.7501 116.528 28.7517 116.529 28.7539L116.548 28.7487Z" fill="white"/>
<path fill-rule="evenodd" clip-rule="evenodd" d="M116.686 28.7703C116.678 28.7703 116.668 28.7717 116.661 28.7699C116.672 28.7767 116.679 28.7758 116.686 28.7703Z" fill="white"/>
<path fill-rule="evenodd" clip-rule="evenodd" d="M115.776 28.8193L115.774 28.8202C115.761 28.8347 115.769 28.8281 115.776 28.8193Z" fill="white"/>
<path fill-rule="evenodd" clip-rule="evenodd" d="M116.47 28.8105L116.467 28.8096L116.462 28.8184L116.47 28.8105Z" fill="white"/>
<path fill-rule="evenodd" clip-rule="evenodd" d="M116.77 28.7708C116.767 28.7719 116.764 28.7737 116.762 28.7773C116.765 28.7778 116.768 28.7784 116.773 28.7791C116.771 28.7755 116.771 28.773 116.77 28.7708Z" fill="white"/>
<path fill-rule="evenodd" clip-rule="evenodd" d="M116.072 28.8299C116.076 28.8184 116.077 28.8107 116.077 28.8053C116.07 28.8064 116.067 28.8118 116.072 28.8299Z" fill="white"/>
<path fill-rule="evenodd" clip-rule="evenodd" d="M41.291 28.4899C41.2897 28.493 41.2883 28.4969 41.2872 28.5027C41.2897 28.4975 41.2908 28.4935 41.291 28.4899Z" fill="white"/>
<path fill-rule="evenodd" clip-rule="evenodd" d="M42.0174 28.6819L42.0081 28.6871C42.0136 28.6869 42.0161 28.685 42.0174 28.6819Z" fill="white"/>
<path fill-rule="evenodd" clip-rule="evenodd" d="M40.859 28.3738L40.8606 28.3709C40.8541 28.3691 40.845 28.3666 40.8305 28.3625L40.859 28.3738Z" fill="white"/>
<path fill-rule="evenodd" clip-rule="evenodd" d="M43.6048 28.9H43.5948C43.5992 28.9005 43.6021 28.9018 43.6048 28.9Z" fill="white"/>
<path fill-rule="evenodd" clip-rule="evenodd" d="M42.6612 28.7814C42.6645 28.7762 42.6697 28.7746 42.6746 28.773C42.6685 28.7716 42.6636 28.7723 42.6612 28.7814Z" fill="white"/>
<path fill-rule="evenodd" clip-rule="evenodd" d="M40.6861 28.0453L40.6943 28.0672C40.6957 28.0588 40.6932 28.0494 40.6861 28.0453Z" fill="white"/>
<path fill-rule="evenodd" clip-rule="evenodd" d="M40.2351 28.0243V28.029C40.2362 28.0272 40.2358 28.0259 40.2351 28.0243Z" fill="white"/>
<path fill-rule="evenodd" clip-rule="evenodd" d="M40.3879 28.1407C40.3921 28.1398 40.397 28.1373 40.4019 28.1351C40.3968 28.1346 40.3901 28.1331 40.3879 28.1407Z" fill="white"/>
<path fill-rule="evenodd" clip-rule="evenodd" d="M40.4088 28.1315L40.4019 28.1351C40.4053 28.1353 40.4084 28.1351 40.4088 28.1315Z" fill="white"/>
<path fill-rule="evenodd" clip-rule="evenodd" d="M49.1956 28.9859C49.2068 28.9909 49.2217 28.9812 49.2366 28.9735L49.1956 28.9859Z" fill="white"/>
<path fill-rule="evenodd" clip-rule="evenodd" d="M45.057 28.8927L45.0546 28.9008C45.057 28.8981 45.0575 28.8954 45.057 28.8927Z" fill="white"/>
<path fill-rule="evenodd" clip-rule="evenodd" d="M49.2717 28.8345L49.2786 28.8412C49.2766 28.8372 49.2743 28.8352 49.2717 28.8345Z" fill="white"/>
<path fill-rule="evenodd" clip-rule="evenodd" d="M40.9264 28.0407C40.9424 28.0247 40.9638 28.052 40.9672 28.0339C40.9534 28.0341 40.9373 28.0163 40.9264 28.0407Z" fill="white"/>
<path fill-rule="evenodd" clip-rule="evenodd" d="M45.3151 28.1566L45.3236 28.155C45.3196 28.155 45.3169 28.1555 45.3151 28.1566Z" fill="white"/>
<path fill-rule="evenodd" clip-rule="evenodd" d="M49.2717 28.8344L49.2637 28.8265C49.2634 28.8302 49.2632 28.8331 49.263 28.8365C49.2661 28.8347 49.2692 28.8338 49.2717 28.8344Z" fill="white"/>
<path fill-rule="evenodd" clip-rule="evenodd" d="M46.537 28.8025H46.5365L46.5339 28.8061L46.537 28.8025Z" fill="white"/>
<path fill-rule="evenodd" clip-rule="evenodd" d="M46.6157 28.8292C46.6105 28.8315 46.6054 28.834 46.5996 28.8362C46.6083 28.8378 46.6128 28.8342 46.6157 28.8292Z" fill="white"/>
<path fill-rule="evenodd" clip-rule="evenodd" d="M49.2365 28.9736L49.2601 28.9666C49.2528 28.9661 49.2448 28.9695 49.2365 28.9736Z" fill="white"/>
<path fill-rule="evenodd" clip-rule="evenodd" d="M47.4363 28.7864C47.4337 28.7871 47.4314 28.7877 47.4288 28.7889C47.4321 28.7891 47.4346 28.7884 47.4363 28.7864Z" fill="white"/>
<path fill-rule="evenodd" clip-rule="evenodd" d="M42.6015 28.765C42.5998 28.763 42.5971 28.7616 42.5951 28.7603C42.594 28.7645 42.594 28.7677 42.6015 28.765Z" fill="white"/>
<path fill-rule="evenodd" clip-rule="evenodd" d="M43.2214 28.3009H43.2217V28.3004L43.2214 28.3009Z" fill="white"/>
<path fill-rule="evenodd" clip-rule="evenodd" d="M43.1895 28.3229C43.1988 28.3277 43.2133 28.3148 43.2215 28.3008C43.2117 28.3004 43.2024 28.304 43.1895 28.3229Z" fill="white"/>
<path fill-rule="evenodd" clip-rule="evenodd" d="M43.2872 28.3139L43.2836 28.3114C43.285 28.3128 43.2861 28.3137 43.2872 28.3139Z" fill="white"/>
<path fill-rule="evenodd" clip-rule="evenodd" d="M42.6708 28.2338L42.6705 28.2358L42.671 28.234L42.6708 28.2338Z" fill="white"/>
<path fill-rule="evenodd" clip-rule="evenodd" d="M42.7933 28.2413C42.7953 28.2454 42.798 28.2483 42.8011 28.2506C42.7993 28.2465 42.7968 28.2434 42.7933 28.2413Z" fill="white"/>
<path fill-rule="evenodd" clip-rule="evenodd" d="M43.5947 28.2726V28.2733L43.5951 28.273L43.5947 28.2726Z" fill="white"/>
<path fill-rule="evenodd" clip-rule="evenodd" d="M44.7445 28.1276C44.6302 28.1447 44.4818 28.1847 44.3673 28.177C44.343 28.2172 44.3066 28.2181 44.2703 28.2271L44.2659 28.1752L44.2355 28.1919C44.2231 28.1763 44.2589 28.1822 44.2369 28.1626L44.2257 28.1951C44.2231 28.1763 44.1475 28.1831 44.1983 28.1454L44.0807 28.1459C44.0544 28.1443 44.0651 28.1894 44.0363 28.1766C44.0305 28.161 44.0468 28.1662 44.0443 28.1474C43.9583 28.1075 43.9436 28.247 43.8627 28.2224L43.8699 28.2156C43.8558 28.2292 43.8297 28.2269 43.8291 28.2346C43.8387 28.2872 43.844 28.2064 43.8683 28.2375C43.8656 28.2818 43.8371 28.261 43.8382 28.2947C43.8195 28.2784 43.8079 28.3032 43.7912 28.3057C43.7636 28.278 43.7223 28.2967 43.7018 28.2612C43.6878 28.2746 43.6713 28.3177 43.6412 28.3186C43.6209 28.2831 43.6472 28.2856 43.6185 28.2719L43.6131 28.2974C43.5893 28.2924 43.5933 28.2854 43.5946 28.2734C43.5692 28.2716 43.5723 28.308 43.5409 28.2906L43.5596 28.266C43.5356 28.275 43.526 28.2705 43.4932 28.2671C43.4946 28.2524 43.5077 28.254 43.5173 28.2583C43.5006 28.2199 43.4861 28.2739 43.4765 28.2694C43.4788 28.2809 43.5015 28.2865 43.4894 28.3114C43.4732 28.3062 43.4533 28.3452 43.4426 28.3145L43.4616 28.2904C43.4266 28.3093 43.442 28.3218 43.4032 28.31C43.4054 28.3082 43.4048 28.3017 43.4059 28.2965C43.3796 28.3281 43.3486 28.2965 43.3121 28.2922L43.3194 28.2856C43.3043 28.2935 43.2951 28.3161 43.2871 28.3139C43.3074 28.3299 43.3011 28.3371 43.302 28.3617C43.2764 28.3181 43.2575 28.4087 43.2133 28.3814C43.2149 28.3669 43.2265 28.3493 43.2383 28.3658C43.2559 28.3231 43.2597 28.2863 43.288 28.2673C43.2706 28.2766 43.2501 28.2818 43.2552 28.2637L43.2479 28.3035C43.2376 28.3041 43.2296 28.3014 43.2218 28.301C43.216 28.3263 43.2405 28.3439 43.2156 28.3592C43.1877 28.371 43.2033 28.3172 43.1982 28.3351C43.1601 28.3493 43.1804 28.3778 43.1451 28.3626C43.1489 28.3592 43.1563 28.3527 43.1592 28.3568C43.1345 28.3394 43.0957 28.3601 43.091 28.3109C43.0955 28.3005 43.097 28.2859 43.1064 28.2908L43.1057 28.2981C43.1358 28.2646 43.0816 28.306 43.093 28.2631C43.0934 28.2892 43.0578 28.2807 43.0417 28.2746L43.0451 28.3048C42.9854 28.3902 43.0518 28.2461 42.9976 28.254C42.9624 28.2719 43.0099 28.2633 42.9878 28.2827C42.9653 28.2759 42.9584 28.2488 42.9241 28.2594C42.9156 28.2468 42.8978 28.2296 42.8985 28.1964C42.8773 28.2082 42.8381 28.1775 42.824 28.2084C42.8566 28.2393 42.8612 28.1763 42.8987 28.2224L42.8849 28.2542C42.8568 28.2504 42.8196 28.2642 42.8011 28.2506C42.8044 28.2572 42.8055 28.2658 42.8026 28.2725C42.7616 28.2813 42.7474 28.3127 42.709 28.2994C42.7064 28.2691 42.7289 28.2764 42.7456 28.275C42.7224 28.2491 42.7195 28.2712 42.6812 28.2579C42.6814 28.2319 42.7075 28.2619 42.7142 28.2366L42.67 28.2411L42.6705 28.2357C42.6607 28.2789 42.6379 28.2292 42.6105 28.2398C42.5481 28.2341 42.533 28.292 42.4951 28.3227C42.4868 28.3102 42.4851 28.2987 42.49 28.2883C42.5036 28.3091 42.5022 28.2938 42.5087 28.2829C42.4871 28.2852 42.4666 28.2355 42.4802 28.2192C42.4454 28.2283 42.49 28.2434 42.4681 28.2547L42.4224 28.2468C42.4258 28.2698 42.4414 28.2764 42.416 28.2908C42.3953 28.2947 42.3859 28.2892 42.3598 28.285C42.3647 28.2743 42.3549 28.2504 42.3745 28.254C42.3627 28.2443 42.3431 28.2411 42.3333 28.2619C42.3598 28.285 42.2841 28.2757 42.3019 28.3125L42.2751 28.2895C42.2818 28.2906 42.2841 28.2757 42.2932 28.2813C42.2887 28.2466 42.2687 28.2883 42.2584 28.2904C42.2488 28.2827 42.223 28.2771 42.2223 28.264C42.2121 28.2721 42.1907 28.2619 42.1885 28.2443C42.1742 28.2491 42.1849 28.266 42.1798 28.2764L42.1343 28.2678C42.1341 28.2488 42.1361 28.1969 42.1439 28.1906C42.1245 28.2057 42.1312 28.2448 42.1053 28.2396C42.1245 28.2057 42.0741 28.2075 42.1009 28.1675C42.0891 28.1391 42.0465 28.1348 42.0218 28.1416C42.0037 28.1682 42.0452 28.1605 42.04 28.1899C41.9727 28.1921 41.9585 28.2725 41.9115 28.2522L41.923 28.2619C41.8905 28.2743 41.8943 28.2712 41.8733 28.2931C41.8865 28.2583 41.852 28.1908 41.8011 28.1915C41.7945 28.2091 41.8243 28.2301 41.8123 28.2579L41.7784 28.2585C41.7764 28.2551 41.7809 28.2497 41.7858 28.2457C41.7543 28.2545 41.7372 28.1906 41.7227 28.2319L41.7002 28.1745L41.7087 28.1987C41.7022 28.2163 41.6681 28.217 41.6603 28.2229C41.6233 28.2378 41.6133 28.2206 41.5981 28.1944C41.6017 28.2102 41.6115 28.2466 41.5839 28.2479C41.593 28.1892 41.5313 28.217 41.5366 28.187C41.5259 28.1858 41.5094 28.1644 41.5045 28.1888L41.5119 28.1522C41.5016 28.203 41.4626 28.1942 41.4312 28.1982C41.449 28.1305 41.3973 28.1982 41.3942 28.1332C41.3809 28.1793 41.3378 28.1431 41.326 28.1822C41.3026 28.1806 41.3122 28.1373 41.3089 28.1215L41.2951 28.1368C41.2873 28.1129 41.2445 28.1018 41.2215 28.082L41.1905 28.119L41.185 28.0984C41.1792 28.1084 41.1582 28.1109 41.168 28.1285L41.1556 28.1235C41.1464 28.1687 41.135 28.1328 41.1056 28.1474C41.101 28.1391 41.1045 28.1285 41.1112 28.1235C41.0985 28.1208 41.1081 28.0987 41.1036 28.0822C41.1108 28.0953 41.0426 28.1547 41.0738 28.1813C41.0729 28.2001 41.0501 28.2098 41.0388 28.1994L41.0383 28.1576L41.0154 28.1976C40.9942 28.1998 40.9904 28.1723 40.9753 28.1644C40.9922 28.1653 41.0261 28.0939 40.9837 28.0862C41.0069 28.0856 41.0221 28.0652 41.035 28.0587C41.0265 28.0558 41.023 28.0508 41.0397 28.0363C41.0042 28.0427 41.0241 28.0589 40.9904 28.0576C40.9989 28.0219 40.992 28.0086 40.9659 27.9903L40.9822 28.021C40.9804 28.0253 40.9784 28.0284 40.9764 28.03C40.9837 28.0357 40.9848 28.0418 40.984 28.056C40.9777 28.0544 40.9376 28.0932 40.9363 28.0702C40.9588 28.1332 40.8703 28.1023 40.885 28.1407C40.8792 28.1504 40.8558 28.1479 40.8569 28.1291C40.8897 28.1072 40.8442 28.084 40.8536 28.0594C40.8413 28.0677 40.8699 28.0908 40.8536 28.1016C40.8367 28.1007 40.8291 28.0759 40.8219 28.0628L40.8304 28.0573L40.8081 28.0361C40.8006 28.0533 40.8266 28.0716 40.8017 28.0763C40.797 28.0675 40.7718 28.0722 40.7751 28.058C40.7914 28.0354 40.7899 28.0007 40.8108 27.9986C40.7939 27.998 40.7408 27.9916 40.7553 28.0296L40.7359 28.0246C40.7451 28.0422 40.774 28.0765 40.7337 28.0738L40.7355 28.0664L40.7025 28.0883L40.6945 28.0671C40.6929 28.0763 40.6869 28.0838 40.6769 28.0811C40.6764 28.0695 40.6677 28.0632 40.6715 28.0488C40.6419 28.0442 40.6403 28.063 40.6345 28.0727C40.6174 28.0718 40.6127 28.0628 40.6249 28.0431C40.6033 28.0334 40.5632 28.0293 40.5521 28.007C40.5184 28.0167 40.5565 28.016 40.5336 28.0366C40.5213 27.9677 40.4395 27.9912 40.389 27.9871C40.3898 28.0454 40.3742 27.9903 40.354 28.0382C40.3682 28.0232 40.317 27.9844 40.3633 27.9794L40.3359 27.9788C40.325 27.9442 40.3843 27.9663 40.3664 27.9187C40.337 27.9135 40.3043 27.9691 40.2744 27.9406C40.2949 27.9047 40.245 27.9469 40.2635 27.9065C40.2737 27.8941 40.2824 27.9006 40.2927 27.9L40.2884 27.8909C40.2272 27.8645 40.2595 27.9322 40.2196 27.951C40.1792 27.9465 40.196 27.9131 40.198 27.8943C40.1937 27.8853 40.1726 27.8866 40.1601 27.8943C40.1895 27.8762 40.1982 27.9291 40.1815 27.951C40.1748 27.9027 40.1244 27.9336 40.1095 27.9483C40.1543 28.0083 40.1476 27.9598 40.1884 28.0226C40.1991 28.0101 40.2071 27.9704 40.2347 27.9941C40.2102 28.0092 40.2309 28.0167 40.2352 28.0244C40.2343 28.0002 40.2592 28.0201 40.2711 28.0129C40.2755 28.0336 40.2399 28.0612 40.2697 28.0781L40.2882 28.0257C40.2989 28.037 40.2737 28.0639 40.3034 28.0573C40.2827 28.082 40.298 28.1021 40.2597 28.1021C40.2925 28.1583 40.3317 28.093 40.3696 28.0815C40.3655 28.084 40.3633 28.091 40.3593 28.0939C40.3696 28.0815 40.3825 28.0853 40.393 28.0847C40.4126 28.1018 40.37 28.1048 40.3725 28.121L40.4088 28.1276C40.4092 28.1296 40.4092 28.1305 40.4088 28.1316C40.4199 28.1262 40.4302 28.1233 40.4306 28.1375C40.4159 28.1524 40.4079 28.1696 40.3974 28.182L40.4435 28.1529C40.4355 28.1698 40.4683 28.1903 40.4384 28.1976L40.4964 28.2023L40.4932 28.2398C40.5082 28.2362 40.51 28.2292 40.4948 28.2211C40.5124 28.2337 40.5935 28.1761 40.5683 28.2457C40.6187 28.2253 40.6321 28.2412 40.6894 28.2339C40.6412 28.2592 40.7281 28.2861 40.6811 28.2926C40.7036 28.3139 40.717 28.2755 40.7382 28.2734C40.754 28.2926 40.7386 28.327 40.7154 28.3362L40.7428 28.3242L40.7408 28.3315L40.7658 28.3152C40.7843 28.3392 40.7633 28.3527 40.7854 28.3622L40.7965 28.3308L40.8086 28.3529C40.8055 28.3371 40.8204 28.3331 40.8375 28.334L40.8358 28.341L40.8572 28.3392C40.8333 28.3547 40.8743 28.3495 40.8607 28.371C40.8777 28.3762 40.8781 28.3757 40.9104 28.3762L40.9093 28.3529C40.9534 28.3419 40.9048 28.3863 40.9374 28.3947L40.9401 28.3687C40.9797 28.4211 41.0254 28.3595 41.0555 28.3936C41.0343 28.3958 41.0341 28.4263 41.0357 28.4191C41.0677 28.4152 41.1161 28.4313 41.1529 28.406C41.158 28.4451 41.1587 28.4568 41.1883 28.4794C41.2122 28.4812 41.2164 28.4785 41.2278 28.4584C41.248 28.4771 41.2944 28.4627 41.291 28.4898C41.3 28.4692 41.3109 28.4974 41.3265 28.4812L41.3274 28.4927L41.3296 28.467C41.3608 28.5306 41.4029 28.4457 41.4361 28.5022L41.4279 28.5081L41.4468 28.5006C41.4477 28.5123 41.4397 28.518 41.4366 28.5327L41.5159 28.5503L41.5032 28.5284C41.5204 28.5286 41.5355 28.5058 41.5522 28.5245C41.5146 28.5577 41.5785 28.5304 41.5794 28.5604L41.5607 28.5681C41.5848 28.569 41.5848 28.569 41.5865 28.5431C41.6184 28.5383 41.6004 28.595 41.6327 28.5715L41.6126 28.5672C41.609 28.5516 41.6264 28.5327 41.6396 28.5351C41.6423 28.5394 41.6501 28.5525 41.6394 28.5541C41.665 28.5478 41.6991 28.5661 41.7111 28.5573C41.7229 28.5672 41.7162 28.5848 41.7082 28.5909C41.7628 28.5756 41.7309 28.5991 41.7855 28.5839L41.7826 28.5986L41.8027 28.5839L41.8239 28.6182L41.8172 28.5981C41.8346 28.5979 41.8464 28.5891 41.8651 28.6004L41.8542 28.621C41.9037 28.6153 41.905 28.6643 41.9542 28.6397C41.9569 28.644 41.9491 28.6499 41.9449 28.653C41.9915 28.6241 41.9723 28.6957 42.0198 28.6593C42.0162 28.6663 42.0198 28.6761 42.0175 28.6819L42.0385 28.6704L42.0334 28.6993L42.0543 28.6584L42.0628 28.6898L42.0719 28.677C42.0859 28.7354 42.1203 28.6968 42.1437 28.7427L42.143 28.705C42.2228 28.637 42.3019 28.7655 42.3921 28.7397L42.3877 28.7689L42.4269 28.7379C42.4436 28.7632 42.4129 28.7621 42.4175 28.7777C42.4572 28.7655 42.4374 28.7359 42.4826 28.7323C42.5036 28.7542 42.4728 28.7533 42.461 28.7625C42.504 28.7524 42.5671 28.7411 42.5949 28.7603C42.596 28.7562 42.5983 28.7515 42.5969 28.7494C42.6259 28.7388 42.6613 28.7551 42.6921 28.756C42.6903 28.7695 42.6825 28.7711 42.6745 28.7729C42.6854 28.7759 42.6997 28.7865 42.7104 28.7734L42.6968 28.798C42.7199 28.805 42.767 28.7858 42.7701 28.8163C42.7681 28.8045 42.771 28.7826 42.791 28.7858C42.7991 28.8316 42.8479 28.7709 42.8786 28.7973C42.8739 28.8077 42.8501 28.8084 42.8566 28.8093C42.8722 28.8222 42.8884 28.8023 42.9038 28.7894L42.898 28.8072L42.9758 28.7874C42.9842 28.8332 43.048 28.7858 43.0406 28.8183C43.068 28.8217 43.0192 28.7969 43.054 28.7939C43.0618 28.8133 43.0854 28.7869 43.0823 28.8163L43.0783 28.8192L43.1026 28.819L43.0859 28.8465C43.1068 28.8418 43.1238 28.8136 43.126 28.7917C43.1445 28.8088 43.1732 28.7971 43.1806 28.8237L43.173 28.8303C43.2287 28.8217 43.2606 28.9145 43.3063 28.8673C43.3094 28.8718 43.3087 28.8788 43.3018 28.8782L43.3359 28.882L43.3268 28.9032L43.3847 28.8727L43.3834 28.8872C43.4206 28.8955 43.4792 28.889 43.5273 28.8863L43.52 28.8933C43.5732 28.8721 43.5701 28.9089 43.6091 28.894C43.6076 28.8978 43.6062 28.8992 43.6049 28.9001L43.6394 28.9005L43.6314 28.9145C43.6577 28.8838 43.7034 28.9583 43.6885 28.931C43.7032 28.9174 43.7283 28.9014 43.733 28.8833C43.7709 28.8822 43.7419 28.9023 43.7649 28.915C43.7923 28.917 43.7974 28.8917 43.8342 28.9052L43.8333 28.9202C43.8505 28.9179 43.8614 28.9075 43.8857 28.9055L43.8783 28.9125C43.918 28.882 43.9269 28.9567 43.9583 28.8926C43.9746 28.9046 44.006 28.8958 44.0042 28.9253C44.0533 28.9073 44.0911 28.8976 44.1397 28.8856C44.1475 28.9342 44.1502 28.8827 44.1796 28.9102L44.1774 28.8842C44.2458 28.88 44.3251 28.945 44.4009 28.9326L44.4036 28.9588L44.4183 28.9296C44.5001 28.94 44.6059 28.9477 44.6712 28.9466C44.6922 28.9321 44.7234 28.8994 44.7575 28.9073L44.7539 28.9111C44.8125 28.8937 44.874 28.8802 44.9389 28.8924C44.9353 28.9037 44.942 28.9111 44.9351 28.9183C44.9491 28.889 44.9727 28.9152 44.9865 28.9154L44.9696 28.8967C44.9865 28.8714 45.0137 28.8935 45.024 28.912L45.0512 28.8824C45.0532 28.8849 45.0563 28.8885 45.057 28.8928L45.0614 28.8788L45.0786 28.9122C45.0853 28.9046 45.1227 28.894 45.1327 28.8603C45.1361 28.8716 45.1635 28.8791 45.143 28.8863L45.2486 28.8906L45.2315 28.8793C45.2277 28.8535 45.2584 28.8352 45.2751 28.8461C45.2553 28.8682 45.2758 28.8831 45.2861 28.9016C45.2992 28.8865 45.2722 28.8793 45.2787 28.8648C45.2956 28.8461 45.3326 28.8346 45.3427 28.8456L45.3329 28.8567C45.3563 28.8456 45.3703 28.8899 45.3939 28.8861C45.414 28.8639 45.4311 28.882 45.4236 28.838C45.4541 28.8267 45.4376 28.8671 45.4478 28.8709C45.461 28.8486 45.5051 28.8594 45.512 28.8818C45.5247 28.8151 45.5967 28.8994 45.5992 28.8441L45.6266 28.8732C45.6263 28.8583 45.629 28.8251 45.6491 28.8176C45.6694 28.8321 45.6667 28.8581 45.6734 28.8727L45.6825 28.8172C45.7979 28.8675 45.9406 28.8183 46.0647 28.8578C46.118 28.8422 46.1835 28.8129 46.2465 28.8165L46.2401 28.824L46.3031 28.8348L46.2563 28.8124C46.2695 28.8054 46.2795 28.7941 46.2927 28.7939C46.3626 28.812 46.4545 28.8348 46.5367 28.8025C46.5875 28.7366 46.5752 28.8565 46.6247 28.8077C46.6205 28.8138 46.6194 28.8228 46.6156 28.8292C46.6706 28.805 46.6998 28.7935 46.7542 28.7542C46.7502 28.8172 46.7903 28.7517 46.7865 28.7847L46.7903 28.7589C46.803 28.7741 46.8324 28.7786 46.8288 28.7969L46.8522 28.7641L46.8554 28.7903C46.8877 28.7908 46.957 28.7671 46.975 28.8199C47.0535 28.7806 47.1812 28.7869 47.2797 28.7998C47.2937 28.7788 47.3229 28.7772 47.3456 28.7752L47.3695 28.8066C47.3926 28.7973 47.4181 28.7585 47.439 28.7786C47.439 28.7822 47.4379 28.7847 47.4363 28.7865C47.4602 28.7802 47.4818 28.7975 47.5043 28.77C47.5299 28.7725 47.554 28.7903 47.5451 28.819C47.5495 28.7673 47.5988 28.8285 47.5988 28.8285C47.5988 28.8285 47.9239 28.8691 48.2738 28.9226C48.6259 28.9732 48.9992 29.0525 49.1957 28.9861C49.2147 28.9662 49.2485 28.9615 49.2492 28.9294C49.2744 28.9287 49.2673 28.9741 49.2811 28.952C49.2579 28.9251 49.3152 28.8946 49.298 28.8542L49.3192 28.8558C49.3299 28.8404 49.2858 28.8651 49.3027 28.8364L49.2797 28.8784C49.2673 28.8662 49.2626 28.8535 49.263 28.8366C49.2419 28.8481 49.2098 28.905 49.1861 28.8662L49.1964 28.8666C49.1683 28.8581 49.1902 28.8316 49.1873 28.8222L49.1933 28.8249L49.1781 28.7935C49.1901 28.8152 49.2334 28.7903 49.2169 28.7872C49.1879 28.7619 49.2214 28.8012 49.1944 28.7971C49.1781 28.7935 49.191 28.7713 49.1968 28.7578L49.1681 28.7488C49.1766 28.7282 49.1864 28.7569 49.1828 28.7312L49.1393 28.7397C49.1509 28.6844 49.0921 28.7506 49.0928 28.6943C49.1226 28.6916 49.0963 28.6756 49.1061 28.66L49.0404 28.6429C49.0368 28.6336 49.0627 28.6316 49.0522 28.6313C49.0444 28.6128 49.0279 28.6383 49.0215 28.6359C49.0203 28.6196 48.9731 28.6216 48.9854 28.5866C48.9479 28.5491 48.9535 28.6261 48.9183 28.5934C48.9189 28.5699 48.9526 28.5981 48.9408 28.5701L48.8955 28.565C48.9022 28.5557 48.9136 28.5324 48.9285 28.5421C48.8213 28.476 48.7821 28.3516 48.6647 28.3525C48.6546 28.3224 48.6796 28.3376 48.6945 28.3229C48.607 28.3376 48.5925 28.24 48.5214 28.2305L48.5163 28.252C48.4309 28.166 48.3059 28.1858 48.1991 28.1452L48.2105 28.1623C48.1925 28.1815 48.1677 28.1806 48.1483 28.1883C48.147 28.1768 48.1671 28.1427 48.1338 28.1479C48.1396 28.1565 48.1523 28.1666 48.147 28.1768C48.0585 28.105 47.8555 28.1036 47.7011 28.0668C47.4891 28.0729 47.2612 28.0257 47.0564 28.044C47.0876 28.0415 47.0751 28.0964 47.0515 28.0842C46.9855 27.993 46.9403 28.1007 46.8734 28.0402C46.7564 28.0752 46.6461 27.9973 46.5405 28.075L46.5369 28.0488C46.52 28.0379 46.5166 28.0562 46.4995 28.0598V28.0524C46.4585 28.0449 46.411 28.0741 46.3869 28.0628L46.3872 28.0923C46.3633 28.096 46.3733 28.0702 46.3497 28.0883L46.3495 28.0736L46.3225 28.1032C46.3221 28.0515 46.2548 28.1036 46.2343 28.0815C46.204 28.0928 46.1467 28.1188 46.0992 28.1115C46.0885 28.0853 46.0313 28.0896 45.994 28.079C45.9239 28.0908 45.8227 28.1066 45.7324 28.1039L45.7364 28.1371L45.7133 28.1411C45.713 28.1334 45.7097 28.1301 45.7128 28.126C45.6921 28.0894 45.6596 28.1416 45.6393 28.1194C45.6531 28.149 45.656 28.1231 45.6694 28.1228C45.6896 28.1375 45.6736 28.1709 45.6464 28.1562V28.149L45.6301 28.1678C45.6263 28.1418 45.6094 28.131 45.6054 28.1052C45.529 28.117 45.4795 28.1655 45.3999 28.1585C45.4062 28.1289 45.3436 28.1698 45.3563 28.1181C45.3101 28.1404 45.3667 28.1585 45.3473 28.1955C45.3342 28.1958 45.321 28.2104 45.3175 28.1919C45.3228 28.1793 45.3048 28.1619 45.3153 28.1567L45.2836 28.1626C45.2805 28.1592 45.2869 28.1515 45.2903 28.1479C45.2274 28.1818 45.1742 28.1224 45.1185 28.1549C45.1154 28.1734 45.1417 28.159 45.1385 28.1775C45.0826 28.2177 45.0855 28.1474 45.0329 28.1768L45.0427 28.1511C45.0262 28.1693 45.0198 28.1915 44.9901 28.1727C44.9834 28.1432 45.0131 28.1472 45.0262 28.1323C45.0064 28.1323 44.9571 28.1429 44.9736 28.1691C44.9504 28.1802 44.9406 28.154 44.9277 28.1465C44.9275 28.1538 44.9504 28.1653 44.9375 28.1797C44.9048 28.1644 44.8555 28.1671 44.8163 28.166C44.8163 28.1587 44.8132 28.1477 44.8163 28.1438C44.7867 28.1838 44.7871 28.1174 44.7445 28.1276Z" fill="white"/>
<path fill-rule="evenodd" clip-rule="evenodd" d="M42.6553 28.2278L42.6707 28.2337C42.6713 28.2272 42.6727 28.2197 42.6805 28.2134L42.6553 28.2278Z" fill="white"/>
<path fill-rule="evenodd" clip-rule="evenodd" d="M43.4058 28.2965C43.4078 28.294 43.41 28.292 43.4118 28.2886C43.408 28.2897 43.4064 28.2929 43.4058 28.2965Z" fill="white"/>
<path fill-rule="evenodd" clip-rule="evenodd" d="M43.5904 28.2504C43.577 28.2565 43.5886 28.2646 43.5946 28.2727C43.5951 28.2666 43.5951 28.2594 43.5904 28.2504Z" fill="white"/>
<path fill-rule="evenodd" clip-rule="evenodd" d="M42.2222 28.2637C42.2253 28.261 42.2273 28.2574 42.2275 28.2511C42.2233 28.2561 42.222 28.2599 42.2222 28.2637Z" fill="white"/>
<path fill-rule="evenodd" clip-rule="evenodd" d="M41.0549 28.066C41.056 28.0678 41.0569 28.069 41.0587 28.0712C41.0582 28.0692 41.0569 28.0674 41.0549 28.066Z" fill="white"/>
<path fill-rule="evenodd" clip-rule="evenodd" d="M41.1113 28.1236C41.1144 28.1242 41.1186 28.124 41.1251 28.1218C41.1197 28.119 41.1153 28.1206 41.1113 28.1236Z" fill="white"/>
<path fill-rule="evenodd" clip-rule="evenodd" d="M42.5087 28.283C42.5132 28.2826 42.5176 28.2808 42.5221 28.2749C42.5152 28.2749 42.5114 28.2785 42.5087 28.283Z" fill="white"/>
<path fill-rule="evenodd" clip-rule="evenodd" d="M41.1398 28.1176L41.1554 28.1234C41.1558 28.1218 41.1563 28.1203 41.1567 28.118L41.1398 28.1176Z" fill="white"/>
<path fill-rule="evenodd" clip-rule="evenodd" d="M41.0351 28.0587C41.0411 28.061 41.0498 28.0625 41.0549 28.0659C41.0482 28.0567 41.0418 28.0553 41.0351 28.0587Z" fill="white"/>
<path fill-rule="evenodd" clip-rule="evenodd" d="M41.7858 28.2457L41.7875 28.2452C41.8023 28.2344 41.7933 28.2387 41.7858 28.2457Z" fill="white"/>
<path fill-rule="evenodd" clip-rule="evenodd" d="M41.2195 28.0804L41.2215 28.082L41.2277 28.075L41.2195 28.0804Z" fill="white"/>
<path fill-rule="evenodd" clip-rule="evenodd" d="M40.9672 28.0338C40.9705 28.0336 40.9734 28.0329 40.9763 28.03C40.9736 28.0286 40.9712 28.0268 40.9676 28.025C40.9678 28.0289 40.9676 28.0313 40.9672 28.0338Z" fill="white"/>
<path fill-rule="evenodd" clip-rule="evenodd" d="M41.5468 28.1639C41.5406 28.1741 41.5377 28.1813 41.5368 28.187C41.5422 28.1874 41.5464 28.1829 41.5468 28.1639Z" fill="white"/>
</g>
</g>
<defs>
<clipPath id="clip0_9_8">
<rect width="158" height="35" fill="white"/>
</clipPath>
</defs>
</svg>
